<?xml version="1.0" encoding="UTF-8" standalone="no"?>
<!DOCTYPE svg  PUBLIC '-//W3C//DTD SVG 1.1//EN'  'http://www.w3.org/Graphics/SVG/1.1/DTD/svg11.dtd'>
<svg xmlns="http://www.w3.org/2000/svg" xml:space="preserve" height="431px" viewBox="0 0 504 431" width="504px" version="1.1" y="0px" x="0px" xmlns:xlink="http://www.w3.org/1999/xlink" enable-background="new 0 0 504 431">        
	<g fill-rule="evenodd" stroke-width="2" fill="none">        
		<g stroke="#B8E986" transform="translate(104 310) rotate(30) translate(-18 -5)">       
			<path d="m0 4c0 2.76 2.01 5 4.5 5s4.5-2.24 4.5-5"/>      
			<path d="m18 4c0 2.76 2 5 4.5 5s4.5-2.24 4.5-5"/>     
			<path d="m18 5c0-2.76-2-5-4.5-5-2.5 4.44e-16 -4.5 2.24-4.5 5"/>    
			<path d="m36 5c0-2.76-2-5-4.5-5-2.5 4.44e-16 -4.5 2.24-4.5 5"/>   
		</g>     
		<g stroke="#FFF390" transform="translate(6 268)">           
			<path d="m2.72 14.9l4.02-7.21 4.66 7.21"/>        
			<path d="m13.4 6.3l-6.79 0.92-6.4-0.71"/>     
			<path d="m7.1 0.418l-0.25 7.18"/>   
		</g>   
		<g stroke="#51CAD7" transform="translate(423 208)">         
			<path d="m2.72 14.9l4.02-7.21 4.66 7.21"/>       
			<path d="m13.4 6.3l-6.79 0.92-6.4-0.71"/>        
			<path d="m7.1 0.418l-0.25 7.18"/>   
		</g>   
		<g id="Group" stroke="#852C6E" transform="translate(86 35)">         
			<path d="m3.8 0.684l2.43 2.44 2.43-2.43m-4.86-0.006l2.43 2.44 2.43-2.43"/>          
			<path d="m8.66 12.8l-2.43-2.5-2.43 2.5m4.86 0l-2.43-2.5-2.43 2.5"/>     
			<path d="m0.58 9.33l2.43-2.43-2.43-2.43m0 4.86l2.43-2.43-2.43-2.43"/>       
			<path d="m12.4 4.47l-2.4 2.43 2.4 2.43m0-4.86l-2.4 2.43 2.4 2.43"/>     
		</g>         
	</g>
</svg>
