<?xml version="1.0" encoding="UTF-8" standalone="no"?>
<!DOCTYPE svg  PUBLIC '-//W3C//DTD SVG 1.1//EN'  'http://www.w3.org/Graphics/SVG/1.1/DTD/svg11.dtd'>
<svg xmlns="http://www.w3.org/2000/svg" xml:space="preserve" height="431px" viewBox="0 0 504 431" width="504px" version="1.1" y="0px" x="0px" xmlns:xlink="http://www.w3.org/1999/xlink" enable-background="new 0 0 504 431">        
	<g fill-rule="evenodd" stroke-width="2" fill="none">    
		<path stroke="#FB3D6A" d="m149 122h14v15h14v14"/>           
		<path stroke="#9C5089" d="m296 253h6v6h6v7" transform="translate(302 259) rotate(180) translate(-302 -259)"/> 
		<path stroke="#9D588D" d="m73.6 206l-5.8-10h11.7l-5.9 10z"/> 
		<path stroke="#9D588D" d="m190 389l-6-9 12-1-6 10z" transform="translate(190 384) rotate(96) translate(-190 -384)"/>   
		<path stroke="#B8E986" d="m399 310l-6-10 12-1-6 11z" transform="translate(399 304) rotate(180) translate(-399 -304)"/>      
		<circle cy="229" stroke="#51CAD8" cx="165" r="7"/>     
		<circle cy="136" stroke="#9D588D" cx="465" r="5.34"/>      
		<circle cy="31.5" stroke="#51CAD7" cx="260" r="7.5"/>  
		<g id="Group" stroke="#FFE217" transform="translate(244 153)">       
			<path d="m15.9 10.7v-9.8"/>          
			<path d="m15.9 21.1v8.7"/>          
			<path d="m20.4 16h9.6"/>         
			<path d="m9.59 16h-9.46"/>     
		</g>   
		<path stroke="#FB3D6A" d="m204 285c0 4 3 7 7 7s7-3 7-7"/>  
		<path stroke="#FB3D6A" d="m51 102c0-4.4-3.1-7.5-7-7.5s-7 3.1-7 7.5"/>
		<g id="wave" stroke="#B8E986" transform="translate(318 94)">     
			<path d="m0 4c0 2.76 2.01 5 4.5 5s4.5-2.24 4.5-5"/>     
			<path d="m18 4c0 2.76 2 5 4.5 5s4.5-2.24 4.5-5"/>       
			<path d="m18 5c0-2.76-2-5-4.5-5-2.5 4.44e-16 -4.5 2.24-4.5 5"/>    
			<path d="m36 5c0-2.76-2-5-4.5-5-2.5 4.44e-16 -4.5 2.24-4.5 5"/>   
		</g>       
		<g stroke="#B8E986" transform="translate(104 310) rotate(30) translate(-18 -5)">       
			<path d="m0 4c0 2.76 2.01 5 4.5 5s4.5-2.24 4.5-5"/>      
			<path d="m18 4c0 2.76 2 5 4.5 5s4.5-2.24 4.5-5"/>     
			<path d="m18 5c0-2.76-2-5-4.5-5-2.5 4.44e-16 -4.5 2.24-4.5 5"/>    
			<path d="m36 5c0-2.76-2-5-4.5-5-2.5 4.44e-16 -4.5 2.24-4.5 5"/>   
		</g>     
		<g stroke="#FFF390" transform="translate(6 268)">           
			<path d="m2.72 14.9l4.02-7.21 4.66 7.21"/>        
			<path d="m13.4 6.3l-6.79 0.92-6.4-0.71"/>     
			<path d="m7.1 0.418l-0.25 7.18"/>   
		</g>   
		<g stroke="#51CAD7" transform="translate(423 208)">         
			<path d="m2.72 14.9l4.02-7.21 4.66 7.21"/>       
			<path d="m13.4 6.3l-6.79 0.92-6.4-0.71"/>        
			<path d="m7.1 0.418l-0.25 7.18"/>   
		</g>   
		<g id="Group" stroke="#852C6E" transform="translate(86 35)">         
			<path d="m3.8 0.684l2.43 2.44 2.43-2.43m-4.86-0.006l2.43 2.44 2.43-2.43"/>          
			<path d="m8.66 12.8l-2.43-2.5-2.43 2.5m4.86 0l-2.43-2.5-2.43 2.5"/>     
			<path d="m0.58 9.33l2.43-2.43-2.43-2.43m0 4.86l2.43-2.43-2.43-2.43"/>       
			<path d="m12.4 4.47l-2.4 2.43 2.4 2.43m0-4.86l-2.4 2.43 2.4 2.43"/>     
		</g>        
		<rect height="15" width="15" stroke="#FB3E67" y="176" x="358"/>    
		<g id="Group" stroke="#FC3F6B" transform="translate(397 39)">      
			<path d="m4.06 7.6l-4.05-3.15"/>         
			<path d="m10.5 12.5l3.2 2.7"/>      
			<path d="m6.19 5.54l-0.09-4.85"/>      
			<path d="m9.43 6.54l3.27-3.88"/>       
			<path d="m11.5 8.99l4.3-0.04"/>     
		</g>  
		<path stroke="#9D588D" d="m315 353l6 6 6-6"/>    
		<g stroke="#FB3D6A" transform="translate(437 361)">      
			<path d="m0.107 14.8l14.7-14.7"/>       
			<path d="m5.11 18.8l14.4-14.4"/>   
		</g>  
		<g stroke="#51CAD7" transform="translate(26 371)">      
			<path d="m7.22 0.574v12.7"/>    
			<path d="m0.526 6.95h12.2"/>    
		</g>  
	</g>
</svg>
