<?xml version="1.0" encoding="utf-8"?>
<!-- Generator: Adobe Illustrator 16.0.0, SVG Export Plug-In . SVG Version: 6.00 Build 0)  -->
<!DOCTYPE svg PUBLIC "-//W3C//DTD SVG 1.1//EN" "http://www.w3.org/Graphics/SVG/1.1/DTD/svg11.dtd">
<svg version="1.1" id="Layer_1" xmlns="http://www.w3.org/2000/svg" xmlns:xlink="http://www.w3.org/1999/xlink" x="0px" y="0px"
	 width="110px" viewBox="0 0 191.4 54" enable-background="new 0 0 416 286" xml:space="preserve">
<g><path fill="#ffffff" d="M1.6,41.7l1.8-6.9h24.5c1.2,0,2.2-0.9,2.4-2.1c0.1-0.6-0.1-1.2-0.5-1.6c-0.3-0.4-0.8-0.6-1.3-0.6H12.9c-2.4,0-4.5-0.9-5.9-2.6c-1.4-1.7-1.9-3.9-1.5-6.3c1-5.5,5.6-8.9,10.5-8.9h25.7l-1.8,6.9H14.9c-1.1,0-2.1,0.9-2.4,2.1c-0.1,0.5,0,1,0.3,1.4c0.3,0.4,0.9,0.7,1.4,0.7H30c2.4,0,4.5,0.9,5.9,2.6c1.4,1.7,1.9,3.9,1.5,6.3c-0.9,5.4-5.1,8.9-10.6,8.9H1.6z"></path><path fill="#ffffff" d="M133.4,12.8c-8.6,0-12.2,4.5-14.5,13.3l-4.2,15.7h7.5l4.2-15.7c0.9-3.3,3-6.4,7.1-6.4h8.8l1.8-6.9H133.4z"></path><polygon fill="#ffffff" points="165.9,12.8 154.3,12.8 156.9,3.1 149.5,3.1 139.1,41.7 146.6,41.7 152.5,19.7 164,19.7"></polygon><path fill="#ffffff" d="M65.3,12.8l-12,0h-7.5L35.6,50.9h7.5l2.5-9.2h15.9c6.8,0,12-4.3,13.7-10.5l1.1-4C77.8,21.1,76.1,12.8,65.3,12.8z M69.3,25.5l-1.1,4c-0.8,2.8-3.3,5.3-6.8,5.3h-14l4.1-15.2h13.8C70.2,19.7,69.7,24.2,69.3,25.5z"></path><path fill="#ffffff" d="M104.4,12.8H93.8c-6.4,0-12,4.3-13.7,10.5l-1.1,4c-1.7,6.1-0.1,14.5,10.9,14.5h10.6c6.8,0,12-4.3,13.7-10.5l1.1-4C117,21.1,115.3,12.8,104.4,12.8z M108.5,25.5l-1.1,4c-0.8,2.8-3.3,5.3-6.8,5.3H89.9c-4.9,0-4.4-4.5-4-5.8l1.1-4c0.8-2.8,3.4-5.3,6.8-5.3h10.6C109.4,19.7,108.8,24.2,108.5,25.5z"></path><path fill="#F6A804" d="M182.2,3.1c-1.9,5.8-7.3,9.7-13.4,9.7l-1.8,6.9h8.3l-5.9,22.1h9.9l10.5-38.7C189.8,3.1,182.2,3.1,182.2,3.1z"></path></g></svg>